<?xml version="1.0" encoding="UTF-8"?>
<svg version="1.1" xmlns="http://www.w3.org/2000/svg" width="251" height="275">
<path d="M0 0 C82.83 0 165.66 0 251 0 C251 90.75 251 181.5 251 275 C168.17 275 85.34 275 0 275 C0 184.25 0 93.5 0 0 Z " fill="#797878" transform="translate(0,0)"/>
<path d="M0 0 C82.83 0 165.66 0 251 0 C251 90.75 251 181.5 251 275 C168.17 275 85.34 275 0 275 C0 184.25 0 93.5 0 0 Z M33.171875 28.4296875 C32.70265625 29.23664062 32.2334375 30.04359375 31.75 30.875 C31.27046875 31.67679688 30.7909375 32.47859375 30.296875 33.3046875 C27.5644181 38.9835889 26.75014289 44.24029605 26.75708008 50.50244141 C26.75521006 51.22302829 26.75334003 51.94361517 26.75141335 52.68603802 C26.74778091 55.07465436 26.75852441 57.46297221 26.76953125 59.8515625 C26.77030501 61.56023644 26.77029136 63.26891089 26.76954651 64.97758484 C26.77049232 69.57360541 26.78470629 74.16949282 26.80236053 78.76547623 C26.81249716 81.624199 26.8192283 84.48290914 26.82476807 87.34164429 C26.87563399 113.25512598 27.02673892 139.16853444 27.34832382 165.08013153 C27.37491292 167.30521276 27.39835884 169.53030804 27.42105103 171.75543213 C27.46397475 175.87493812 27.52369225 179.99402159 27.5859375 184.11328125 C27.59750381 185.31152023 27.60907013 186.50975922 27.62098694 187.74430847 C27.82633027 199.22004766 29.84299207 209.00528552 38.37109375 217.30859375 C44.41547343 222.32257689 49.63684625 226.18031947 57.71484375 226.0625 C58.51913818 226.05347656 59.32343262 226.04445312 60.15209961 226.03515625 C60.76190674 226.02355469 61.37171387 226.01195312 62 226 C61.97381592 227.03930664 61.94763184 228.07861328 61.9206543 229.14941406 C61.83005593 233.01068538 61.77271696 236.87186309 61.7253418 240.73388672 C61.70021922 242.40429489 61.66611448 244.07459337 61.62280273 245.74462891 C61.56204601 248.1477362 61.53376979 250.54938904 61.51171875 252.953125 C61.48591232 253.69806213 61.4601059 254.44299927 61.43351746 255.21051025 C61.43144655 259.05134295 61.67367632 260.65430752 64.3527832 263.49243164 C66.90572301 265.2050189 66.90572301 265.2050189 69.84375 265.16796875 C74.35782362 263.49753804 77.11713879 260.66553802 80.5 257.3125 C81.54015259 256.31005249 81.54015259 256.31005249 82.60131836 255.28735352 C87.87701712 250.17980452 93.08234072 244.99306957 98.21875 239.74536133 C101.5267984 236.38221249 104.94850621 233.27350575 108.59741211 230.28149414 C110.13352482 229.03183642 110.13352482 229.03183642 111 227 C111.90529717 226.99780016 111.90529717 226.99780016 112.82888317 226.99555588 C127.51832303 226.95849427 142.20756153 226.89948822 156.89680767 226.81609726 C164.00046349 226.77629822 171.1040084 226.74391022 178.20776367 226.72900391 C185.06139106 226.7146016 191.91466229 226.67950043 198.76813698 226.63169098 C201.38480456 226.61683667 204.00152121 226.60895668 206.61823082 226.60811615 C210.27930869 226.60575704 213.93942852 226.57876024 217.6003418 226.54589844 C219.22845795 226.55344398 219.22845795 226.55344398 220.88946533 226.56114197 C225.2949781 226.49983317 228.19442166 226.44920107 232.08747864 224.27838135 C235.51588319 220.19413259 236.24980097 216.46425931 236.27415466 211.21354675 C236.28911736 209.4788488 236.28911736 209.4788488 236.30438232 207.70910645 C236.305047 206.44924927 236.30571167 205.18939209 236.30639648 203.89135742 C236.31402251 202.54400678 236.32245078 201.19666048 236.33161926 199.84931946 C236.353528 196.19629386 236.3623583 192.54335196 236.36744571 188.89026809 C236.37109369 186.6055037 236.37733606 184.32076109 236.3844471 182.03600502 C236.40892939 174.0580919 236.42199076 166.08024368 236.42553711 158.10229492 C236.42917105 150.67735509 236.45905905 143.25282894 236.50094169 135.82801551 C236.53568511 129.44396404 236.55108625 123.06004942 236.55178314 116.6759041 C236.55257461 112.86711333 236.56125255 109.05874418 236.58978081 105.2500515 C236.61603147 101.66539342 236.61812868 98.0815044 236.60212517 94.49679375 C236.59945744 92.56363959 236.62144688 90.63049995 236.64431763 88.69747925 C236.5744028 80.35576405 235.0404819 75.62322964 229.59727955 69.39496899 C222.55330587 63.24318119 211.04380701 64.57664876 202.30419922 64.61523438 C200.7393657 64.61112217 199.17453525 64.60565748 197.60971069 64.59895325 C194.25838253 64.58728682 190.90721878 64.58472273 187.55587387 64.58930969 C182.25161172 64.59615367 176.94756371 64.58019397 171.64334106 64.56091309 C159.43055373 64.51995265 147.21777299 64.50851858 135.00492859 64.49738312 C123.80032231 64.48686362 112.59581981 64.47004482 101.39127743 64.42928743 C96.12312886 64.41097619 90.85522771 64.4070223 85.58705497 64.41422272 C82.306704 64.41574837 79.02647608 64.40493742 75.7461586 64.39084435 C74.2304862 64.38685441 72.71479017 64.38794494 71.1991272 64.39461708 C55.03995256 64.46026594 55.03995256 64.46026594 47.90625 59.5625 C44.68410402 55.9823378 43.57309188 53.29075105 43.375 48.4375 C43.75158911 42.57232488 45.34226308 39.4828379 49.66026211 35.44899559 C56.83513978 29.81951632 64.20417766 30.18926641 72.89282227 30.31884766 C74.49018794 30.32054245 76.08755829 30.31958552 77.68492126 30.31619263 C81.9987153 30.31447853 86.31149833 30.34963217 90.62505841 30.39163637 C95.14133845 30.42926907 99.65764437 30.43267858 104.17405701 30.43978882 C112.71631094 30.45840097 121.25810145 30.50758849 129.80015177 30.56788576 C139.52925121 30.63506427 149.25837335 30.66796835 158.98764718 30.69805837 C178.99202295 30.76069101 198.99598222 30.86615504 219 31 C218.86068862 34.0836642 218.71240719 37.16683417 218.5625 40.25 C218.52318359 41.12269531 218.48386719 41.99539062 218.44335938 42.89453125 C218.40146484 43.73886719 218.35957031 44.58320312 218.31640625 45.453125 C218.26141968 46.61569824 218.26141968 46.61569824 218.20532227 47.80175781 C218.00396985 49.9574976 217.58270703 51.91801475 217 54 C219.6226232 55.33819498 222.24786599 56.6707151 224.875 58 C225.99455078 58.57234375 225.99455078 58.57234375 227.13671875 59.15625 C227.85214844 59.5171875 228.56757813 59.878125 229.3046875 60.25 C229.96452637 60.58515625 230.62436523 60.9203125 231.30419922 61.265625 C232.9978855 62.13246413 232.9978855 62.13246413 235 62 C235.02464705 56.32169922 235.04283462 50.64342931 235.05493164 44.96508789 C235.05997256 43.03181415 235.06680519 41.09854424 235.07543945 39.1652832 C235.08751565 36.39273128 235.09323057 33.62022959 235.09765625 30.84765625 C235.10281754 29.97786636 235.10797882 29.10807648 235.11329651 28.21192932 C235.11349185 26.14094186 235.06208168 24.07005676 235 22 C233.04447728 20.04447728 229.26365769 20.84788666 226.59309387 20.84609985 C225.80834724 20.8417176 225.0236006 20.83733535 224.21507376 20.8328203 C221.56501105 20.81938278 218.91498162 20.81324234 216.26489258 20.80712891 C214.37302498 20.79923173 212.4811589 20.79096303 210.58929443 20.78234863 C204.35772144 20.75608041 198.12614156 20.7408146 191.89453125 20.7265625 C189.75222964 20.72120448 187.60992808 20.71582698 185.46762657 20.71043015 C176.55726231 20.68879292 167.6468999 20.67005571 158.736516 20.65880775 C145.95336022 20.64256705 133.17050838 20.60939581 120.38746721 20.55240691 C111.40738504 20.51373363 102.42738425 20.49417806 93.44722098 20.48888719 C88.0802188 20.48522968 82.71354043 20.47316629 77.34662819 20.44078445 C72.29621246 20.41075052 67.24631723 20.40437537 62.1958313 20.41616821 C60.34227752 20.41638935 58.48869994 20.40805112 56.63522911 20.39051437 C54.103466 20.36786452 51.57359679 20.37609717 49.04182434 20.39199829 C47.94263356 20.37117516 47.94263356 20.37117516 46.82123691 20.34993136 C40.18278458 20.45259193 37.06356016 23.25740509 33.171875 28.4296875 Z " fill="#0C0C0C" transform="translate(0,0)"/>
<path d="M0 0 C4.49299143 0.79521972 5.95753061 2.29815078 9.03125 5.625 C9.50191895 6.12612305 9.97258789 6.62724609 10.45751953 7.14355469 C11.83436997 8.6199308 13.1834069 10.1220953 14.53125 11.625 C15.21960938 12.37265625 15.90796875 13.1203125 16.6171875 13.890625 C18.30677766 15.76466823 19.92595071 17.67867858 21.53125 19.625 C22.04945313 20.20765625 22.56765625 20.7903125 23.1015625 21.390625 C25.11569129 23.83399435 26.45510419 25.55310125 26.68359375 28.76953125 C26.34777759 32.1582216 25.97260112 34.18364888 23.53125 36.625 C20.96875 37.1875 20.96875 37.1875 17.53125 36.625 C15.22680664 35.03881836 15.22680664 35.03881836 12.81640625 33.08984375 C12.01211182 32.44523193 11.20781738 31.80062012 10.37915039 31.13647461 C9.76934326 30.63768799 9.15953613 30.13890137 8.53125 29.625 C8.53791183 30.73111633 8.54457367 31.83723267 8.55143738 32.97686768 C8.61221955 43.3946209 8.65720875 53.8123382 8.68668652 64.23022842 C8.70235073 69.58634067 8.72360294 74.94230991 8.75756836 80.29833984 C8.79013464 85.46600503 8.80809732 90.63353255 8.81588173 95.80129242 C8.82143013 97.77409788 8.83226466 99.74689569 8.84844017 101.71964264 C8.87017806 104.48025366 8.87321844 107.24029389 8.87182617 110.00097656 C8.882612 110.81881119 8.89339783 111.63664581 8.9045105 112.47926331 C8.88657471 115.76006678 8.75713505 118.19542886 7.2155304 121.12713623 C5.53125 122.625 5.53125 122.625 2.2421875 123.21484375 C-2.41048914 122.47531304 -4.66626269 120.43463487 -7.84375 117.1875 C-8.40030273 116.64198486 -8.95685547 116.09646973 -9.53027344 115.53442383 C-10.65481528 114.42914227 -11.77277087 113.31711673 -12.88378906 112.19824219 C-14.3093156 110.78325559 -15.78853433 109.42285661 -17.2734375 108.0703125 C-23.87046167 101.97913044 -23.87046167 101.97913044 -24.65625 97.75 C-24.46875 94.625 -24.46875 94.625 -22.46875 91.625 C-18.08227838 91.03451344 -15.95988016 91.34305491 -12.09375 93.5625 C-9.46875 95.625 -9.46875 95.625 -8.46875 96.625 C-8.13875 74.515 -7.80875 52.405 -7.46875 29.625 C-13.08140981 34.50457946 -13.08140981 34.50457946 -18.46875 39.625 C-21.58686483 40.01476435 -23.57894567 40.12922245 -26.34375 38.5625 C-27.66723112 36.28317141 -28.19531076 34.40296011 -28.0625 31.7578125 C-26.64434072 26.66363509 -22.75581548 22.64366939 -19.46875 18.625 C-19.0140332 18.06876953 -18.55931641 17.51253906 -18.09082031 16.93945312 C-14.94553942 13.11172593 -11.75690991 9.33093808 -8.46875 5.625 C-7.67855469 4.67367187 -6.88835937 3.72234375 -6.07421875 2.7421875 C-3.46875 0.625 -3.46875 0.625 0 0 Z " fill="#0F0F0F" transform="translate(188.46875,88.375)"/>
<path d="M0 0 C0.79687225 -0.00335861 1.59374451 -0.00671722 2.4147644 -0.01017761 C5.05647324 -0.01969923 7.69811881 -0.02163121 10.33984375 -0.02270508 C12.17065457 -0.02591638 14.00146512 -0.02928036 15.83227539 -0.03279114 C19.67236934 -0.03878513 23.51244077 -0.04063072 27.35253906 -0.04003906 C32.28251469 -0.03993733 37.21234667 -0.05360023 42.14228821 -0.07081127 C45.92371286 -0.08190716 49.70510248 -0.08395903 53.48654175 -0.08342934 C55.30468237 -0.08461269 57.12282381 -0.08905423 58.94094849 -0.0967617 C61.47896519 -0.10651482 64.01666616 -0.10370244 66.5546875 -0.09765625 C67.31111542 -0.10327576 68.06754333 -0.10889526 68.84689331 -0.11468506 C74.0490269 -0.08305318 74.0490269 -0.08305318 76.27734375 2.14526367 C76.54296875 4.42260742 76.54296875 4.42260742 76.52734375 7.08276367 C76.53507812 8.39567383 76.53507812 8.39567383 76.54296875 9.73510742 C76.27734375 12.14526367 76.27734375 12.14526367 74.27734375 15.14526367 C71.69980647 15.4774284 69.35436666 15.61371162 66.77001953 15.62524414 C65.995867 15.64025467 65.22171448 15.6552652 64.42410278 15.67073059 C61.85694311 15.71633012 59.29011588 15.74006366 56.72265625 15.76245117 C54.94146543 15.78690969 53.16028639 15.81224058 51.37911987 15.83840942 C47.64162457 15.88985879 43.90420501 15.93047762 40.16650391 15.96362305 C35.37535134 16.00700534 30.58504857 16.07738037 25.79435921 16.15594292 C22.11418519 16.21326083 18.43395142 16.25607625 14.75353622 16.29452896 C12.9872349 16.31476135 11.2209797 16.33954754 9.45480728 16.3689537 C6.98424258 16.40793728 4.51427147 16.42736351 2.04345703 16.44165039 C1.31292114 16.45707382 0.58238525 16.47249725 -0.17028809 16.48838806 C-3.28216759 16.48817936 -5.42525499 16.30673388 -8.18362427 14.80911255 C-9.72265625 13.14526367 -9.72265625 13.14526367 -10.11328125 10.22729492 C-10.066875 9.14834961 -10.02046875 8.0694043 -9.97265625 6.95776367 C-9.9365625 5.87108398 -9.90046875 4.7844043 -9.86328125 3.66479492 C-9.816875 2.83334961 -9.77046875 2.0019043 -9.72265625 1.14526367 C-6.63673816 -0.39769537 -3.38659039 -0.00202895 0 0 Z " fill="#0D0D0D" transform="translate(65.72265625,97.854736328125)"/>
<path d="M0 0 C1.20805298 -0.01260864 2.41610596 -0.02521729 3.6607666 -0.03820801 C4.96187378 -0.03011108 6.26298096 -0.02201416 7.60351562 -0.01367188 C8.95585407 -0.01636772 10.30819063 -0.02025091 11.66052246 -0.02526855 C14.49180597 -0.03115946 17.32258395 -0.0226148 20.15380859 -0.00390625 C23.77903226 0.0188843 27.40307143 0.00575886 31.02825165 -0.01819611 C33.8198943 -0.03266583 36.61125714 -0.02804299 39.40290833 -0.01768494 C41.38820161 -0.01372732 43.37350586 -0.02585354 45.35876465 -0.03820801 C47.17084412 -0.01929504 47.17084412 -0.01929504 49.01953125 0 C50.08224243 0.00318237 51.14495361 0.00636475 52.23986816 0.00964355 C55.68282335 0.64100121 56.86604878 1.80677386 59.00976562 4.51757812 C59.71858866 7.42542694 59.34948351 9.46011713 59.00976562 12.51757812 C57.86218262 14.2336731 57.86218262 14.2336731 56.00976562 15.51757812 C53.27746582 15.93649292 53.27746582 15.93649292 49.93359375 15.99755859 C48.68219604 16.02703583 47.43079834 16.05651306 46.14147949 16.08688354 C44.77466737 16.10361059 43.40784544 16.11955234 42.04101562 16.13476562 C40.63999954 16.15923471 39.23899827 16.18456619 37.8380127 16.21072388 C34.90264301 16.26209885 31.96736818 16.30274646 29.03173828 16.3359375 C25.26835941 16.37938419 21.50605508 16.44978034 17.74326324 16.52825737 C14.85065231 16.58555324 11.95796542 16.6283786 9.06504822 16.66684341 C7.67749224 16.68707436 6.28999496 16.71186 4.90260315 16.74126816 C2.96395457 16.78022567 1.02490838 16.7975961 -0.9140625 16.81396484 C-2.01754028 16.82934296 -3.12101807 16.84472107 -4.25793457 16.86056519 C-6.99023438 16.51757812 -6.99023438 16.51757812 -8.84289551 15.13162231 C-10.34040963 13.02496139 -10.42339984 11.65045869 -10.42773438 9.08007812 C-10.44707031 8.31824219 -10.46640625 7.55640625 -10.48632812 6.77148438 C-9.23988577 1.10851397 -5.25245194 0.01572888 0 0 Z " fill="#0D0D0D" transform="translate(65.990234375,129.482421875)"/>
</svg>
